<mxfile host="app.diagrams.net" agent="Mozilla/5.0 (X11; Ubuntu; Linux x86_64; rv:125.0) Gecko/20100101 Firefox/125.0" version="24.7.4">
  <diagram name="Page-1" id="_7twmjLRH4nfamU4ZrAq">
    <mxGraphModel dx="1018" dy="598" grid="1" gridSize="10" guides="1" tooltips="1" connect="1" arrows="1" fold="1" page="1" pageScale="1" pageWidth="850" pageHeight="1100" math="0" shadow="0">
      <root>
        <mxCell id="0" />
        <mxCell id="1" parent="0" />
        <mxCell id="cFu5cjtVwJaisy5rdx6f-5" value="AWS Cloud" style="sketch=0;outlineConnect=0;gradientColor=none;html=1;whiteSpace=wrap;fontSize=12;fontStyle=0;shape=mxgraph.aws4.group;grIcon=mxgraph.aws4.group_aws_cloud;strokeColor=#AAB7B8;fillColor=none;verticalAlign=top;align=left;spacingLeft=30;fontColor=#AAB7B8;dashed=0;" vertex="1" parent="1">
          <mxGeometry x="240" y="200" width="480" height="480" as="geometry" />
        </mxCell>
        <mxCell id="cFu5cjtVwJaisy5rdx6f-6" value="VPC" style="sketch=0;outlineConnect=0;gradientColor=none;html=1;whiteSpace=wrap;fontSize=12;fontStyle=0;shape=mxgraph.aws4.group;grIcon=mxgraph.aws4.group_vpc;strokeColor=#879196;fillColor=none;verticalAlign=top;align=left;spacingLeft=30;fontColor=#879196;dashed=0;" vertex="1" parent="1">
          <mxGeometry x="260" y="240" width="440" height="420" as="geometry" />
        </mxCell>
        <mxCell id="cFu5cjtVwJaisy5rdx6f-12" value="Private subnet" style="points=[[0,0],[0.25,0],[0.5,0],[0.75,0],[1,0],[1,0.25],[1,0.5],[1,0.75],[1,1],[0.75,1],[0.5,1],[0.25,1],[0,1],[0,0.75],[0,0.5],[0,0.25]];outlineConnect=0;gradientColor=none;html=1;whiteSpace=wrap;fontSize=12;fontStyle=0;container=1;pointerEvents=0;collapsible=0;recursiveResize=0;shape=mxgraph.aws4.group;grIcon=mxgraph.aws4.group_security_group;grStroke=0;strokeColor=#00A4A6;fillColor=#E6F6F7;verticalAlign=top;align=left;spacingLeft=30;fontColor=#147EBA;dashed=0;" vertex="1" parent="1">
          <mxGeometry x="280" y="360" width="180" height="200" as="geometry" />
        </mxCell>
        <mxCell id="cFu5cjtVwJaisy5rdx6f-32" value="" style="outlineConnect=0;dashed=0;verticalLabelPosition=bottom;verticalAlign=top;align=center;html=1;shape=mxgraph.aws3.ec2;fillColor=#F58534;gradientColor=none;" vertex="1" parent="cFu5cjtVwJaisy5rdx6f-12">
          <mxGeometry x="20" y="50" width="40" height="46" as="geometry" />
        </mxCell>
        <mxCell id="cFu5cjtVwJaisy5rdx6f-13" value="Public subnet" style="points=[[0,0],[0.25,0],[0.5,0],[0.75,0],[1,0],[1,0.25],[1,0.5],[1,0.75],[1,1],[0.75,1],[0.5,1],[0.25,1],[0,1],[0,0.75],[0,0.5],[0,0.25]];outlineConnect=0;gradientColor=none;html=1;whiteSpace=wrap;fontSize=12;fontStyle=0;container=1;pointerEvents=0;collapsible=0;recursiveResize=0;shape=mxgraph.aws4.group;grIcon=mxgraph.aws4.group_security_group;grStroke=0;strokeColor=#7AA116;fillColor=#F2F6E8;verticalAlign=top;align=left;spacingLeft=30;fontColor=#248814;dashed=0;" vertex="1" parent="1">
          <mxGeometry x="500" y="360" width="180" height="200" as="geometry" />
        </mxCell>
        <mxCell id="cFu5cjtVwJaisy5rdx6f-14" value="" style="outlineConnect=0;dashed=0;verticalLabelPosition=bottom;verticalAlign=top;align=center;html=1;shape=mxgraph.aws3.ec2;fillColor=#F58534;gradientColor=none;" vertex="1" parent="cFu5cjtVwJaisy5rdx6f-13">
          <mxGeometry x="30" y="50" width="40" height="46" as="geometry" />
        </mxCell>
        <mxCell id="cFu5cjtVwJaisy5rdx6f-30" value="" style="outlineConnect=0;dashed=0;verticalLabelPosition=bottom;verticalAlign=top;align=center;html=1;shape=mxgraph.aws3.vpc_nat_gateway;fillColor=#F58534;gradientColor=none;" vertex="1" parent="cFu5cjtVwJaisy5rdx6f-13">
          <mxGeometry x="30" y="140" width="40" height="40" as="geometry" />
        </mxCell>
        <mxCell id="cFu5cjtVwJaisy5rdx6f-33" value="Network&#xa;access&#xa;control list" style="sketch=0;outlineConnect=0;fontColor=#232F3E;gradientColor=none;strokeColor=#232F3E;fillColor=#ffffff;dashed=0;verticalLabelPosition=bottom;verticalAlign=top;align=center;html=1;fontSize=12;fontStyle=0;aspect=fixed;shape=mxgraph.aws4.resourceIcon;resIcon=mxgraph.aws4.network_access_control_list;" vertex="1" parent="cFu5cjtVwJaisy5rdx6f-13">
          <mxGeometry x="140" y="36" width="60" height="60" as="geometry" />
        </mxCell>
        <mxCell id="cFu5cjtVwJaisy5rdx6f-35" value="Security Group" style="fontStyle=0;verticalAlign=top;align=center;spacingTop=-2;fillColor=none;rounded=0;whiteSpace=wrap;html=1;strokeColor=#FF0000;strokeWidth=2;dashed=1;container=1;collapsible=0;expand=0;recursiveResize=0;" vertex="1" parent="cFu5cjtVwJaisy5rdx6f-13">
          <mxGeometry x="5" y="30" width="90" height="72" as="geometry" />
        </mxCell>
        <mxCell id="cFu5cjtVwJaisy5rdx6f-36" value="" style="endArrow=classic;startArrow=classic;html=1;rounded=0;exitX=1;exitY=0.5;exitDx=0;exitDy=0;" edge="1" parent="cFu5cjtVwJaisy5rdx6f-13" source="cFu5cjtVwJaisy5rdx6f-35" target="cFu5cjtVwJaisy5rdx6f-33">
          <mxGeometry width="50" height="50" relative="1" as="geometry">
            <mxPoint x="-30" y="110" as="sourcePoint" />
            <mxPoint x="10" y="110" as="targetPoint" />
          </mxGeometry>
        </mxCell>
        <mxCell id="cFu5cjtVwJaisy5rdx6f-15" value="" style="outlineConnect=0;dashed=0;verticalLabelPosition=bottom;verticalAlign=top;align=center;html=1;shape=mxgraph.aws3.internet_gateway;fillColor=#F58534;gradientColor=none;" vertex="1" parent="1">
          <mxGeometry x="454.13" y="210" width="51.75" height="50" as="geometry" />
        </mxCell>
        <mxCell id="cFu5cjtVwJaisy5rdx6f-19" value="" style="outlineConnect=0;dashed=0;verticalLabelPosition=bottom;verticalAlign=top;align=center;html=1;shape=mxgraph.aws3.route_table;fillColor=#F58536;gradientColor=none;" vertex="1" parent="1">
          <mxGeometry x="610" y="340" width="40" height="40" as="geometry" />
        </mxCell>
        <mxCell id="cFu5cjtVwJaisy5rdx6f-20" value="" style="outlineConnect=0;dashed=0;verticalLabelPosition=bottom;verticalAlign=top;align=center;html=1;shape=mxgraph.aws3.router;fillColor=#F58534;gradientColor=none;" vertex="1" parent="1">
          <mxGeometry x="453.01" y="289" width="54" height="51" as="geometry" />
        </mxCell>
        <mxCell id="cFu5cjtVwJaisy5rdx6f-23" value="" style="endArrow=classic;startArrow=classic;html=1;rounded=0;exitX=1;exitY=0.75;exitDx=0;exitDy=0;entryX=0;entryY=0.75;entryDx=0;entryDy=0;" edge="1" parent="1" source="cFu5cjtVwJaisy5rdx6f-12" target="cFu5cjtVwJaisy5rdx6f-13">
          <mxGeometry width="50" height="50" relative="1" as="geometry">
            <mxPoint x="450" y="510" as="sourcePoint" />
            <mxPoint x="500" y="460" as="targetPoint" />
          </mxGeometry>
        </mxCell>
        <mxCell id="cFu5cjtVwJaisy5rdx6f-24" value="" style="endArrow=none;html=1;rounded=0;exitX=0.5;exitY=0;exitDx=0;exitDy=0;exitPerimeter=0;" edge="1" parent="1" source="cFu5cjtVwJaisy5rdx6f-20">
          <mxGeometry width="50" height="50" relative="1" as="geometry">
            <mxPoint x="430" y="310" as="sourcePoint" />
            <mxPoint x="480" y="260" as="targetPoint" />
          </mxGeometry>
        </mxCell>
        <mxCell id="cFu5cjtVwJaisy5rdx6f-26" value="" style="endArrow=none;html=1;rounded=0;" edge="1" parent="1">
          <mxGeometry width="50" height="50" relative="1" as="geometry">
            <mxPoint x="507.01" y="310" as="sourcePoint" />
            <mxPoint x="630" y="340" as="targetPoint" />
            <Array as="points">
              <mxPoint x="630" y="310" />
            </Array>
          </mxGeometry>
        </mxCell>
        <mxCell id="cFu5cjtVwJaisy5rdx6f-27" value="" style="outlineConnect=0;dashed=0;verticalLabelPosition=bottom;verticalAlign=top;align=center;html=1;shape=mxgraph.aws3.internet_2;fillColor=#D2D3D3;gradientColor=none;" vertex="1" parent="1">
          <mxGeometry x="441" y="110" width="79.5" height="54" as="geometry" />
        </mxCell>
        <mxCell id="cFu5cjtVwJaisy5rdx6f-28" value="" style="endArrow=none;html=1;rounded=0;exitX=0.5;exitY=0;exitDx=0;exitDy=0;exitPerimeter=0;entryX=0.5;entryY=1;entryDx=0;entryDy=0;entryPerimeter=0;" edge="1" parent="1" source="cFu5cjtVwJaisy5rdx6f-15" target="cFu5cjtVwJaisy5rdx6f-27">
          <mxGeometry width="50" height="50" relative="1" as="geometry">
            <mxPoint x="430" y="220" as="sourcePoint" />
            <mxPoint x="480" y="170" as="targetPoint" />
          </mxGeometry>
        </mxCell>
        <mxCell id="cFu5cjtVwJaisy5rdx6f-29" value="" style="outlineConnect=0;dashed=0;verticalLabelPosition=bottom;verticalAlign=top;align=center;html=1;shape=mxgraph.aws3.route_table;fillColor=#F58536;gradientColor=none;" vertex="1" parent="1">
          <mxGeometry x="399" y="337.5" width="42" height="45" as="geometry" />
        </mxCell>
        <mxCell id="cFu5cjtVwJaisy5rdx6f-31" value="" style="endArrow=classic;html=1;rounded=0;entryX=0.145;entryY=0.145;entryDx=0;entryDy=0;entryPerimeter=0;exitX=0.5;exitY=1;exitDx=0;exitDy=0;exitPerimeter=0;" edge="1" parent="1" source="cFu5cjtVwJaisy5rdx6f-29" target="cFu5cjtVwJaisy5rdx6f-30">
          <mxGeometry width="50" height="50" relative="1" as="geometry">
            <mxPoint x="420" y="350" as="sourcePoint" />
            <mxPoint x="470" y="300" as="targetPoint" />
          </mxGeometry>
        </mxCell>
      </root>
    </mxGraphModel>
  </diagram>
</mxfile>
